<!-- <svg xmlns="http://www.w3.org/2000/svg" viewBox="0 0 16 16"><path d="m 2 1 c -->
<!--         -1.108 0 -2 0.892 -2 2 l 0 9.999 c 0 1.108 0.892 2 2 2 l 11.999 0 c 1.108 0 2 -0.892 2 -2 l 0 -->
<!--         -9.999 c 0 -1.108 -0.892 -2 -2 -2 z m 9.03 2 c 0.055 0.006 0.136 0.036 0.187 0.062 l 1.562 0.781 -->
<!--         c 0.208 0.106 0.269 0.367 0.157 0.562 l -4.874 8.374 c -0.087 0.148 -0.268 0.239 -0.437 0.219 -->
<!--         -0.052 -0.005 -0.107 -0.007 -0.157 -0.032 c -0.005 -0.003 -4.25 -3.312 -4.25 -3.312 -0.208 -->
<!--         -0.106 -0.269 -0.367 -0.157 -0.562 l 1.031 -1.25 c 0.113 -0.195 0.386 -0.263 0.594 -0.157 l -->
<!--         2.313 1.75 3.624 -6.218 c 0.085 -0.146 0.241 -0.235 0.406 -0.219" -->
<!--         style="visibility:visible;fill:#ececec;opacity:1;fill-opacity:1;stroke:none;display:inline;fill-rule:nonzero"/> -->
<!-- </svg> -->

<svg xmlns="http://www.w3.org/2000/svg" viewBox="0 0 512 512"><!--!Font Awesome Free
     6.7.2 by @fontawesome - https://fontawesome.com License - https://fontawesome.com/license/free
     Copyright 2025 Fonticons, Inc.--><path d="M64 32C28.7 32 0 60.7 0 96l0 64c0 35.3 28.7 64 64
     64l384 0c35.3 0 64-28.7 64-64l0-64c0-35.3-28.7-64-64-64L64 32zm280 72a24 24 0 1 1 0 48 24 24 0
     1 1 0-48zm48 24a24 24 0 1 1 48 0 24 24 0 1 1 -48 0zM64 288c-35.3 0-64 28.7-64 64l0 64c0 35.3
     28.7 64 64 64l384 0c35.3 0 64-28.7 64-64l0-64c0-35.3-28.7-64-64-64L64 288zm280 72a24 24 0 1 1 0
     48 24 24 0 1 1 0-48zm56 24a24 24 0 1 1 48 0 24 24 0 1 1 -48 0z" style="fill:#fdfdfd;stroke:none;"/></svg>
